<svg width="67" height="9" viewBox="0 0 67 9" fill="currentColor"
    xmlns="http://www.w3.org/2000/svg">
    <path fill-rule="evenodd" clip-rule="evenodd" d="M63.254 0.0449994C62.9121 0.129322 62.4573 0.474694 61.9923 1.00311C61.6772 1.36133 61.5781 1.50962 61.4249 1.85272C61.354 2.01148 61.2729 2.15318 61.2448 2.16765C61.1991 2.19106 58.3745 2.41275 58.1379 2.41148C58.0776 2.41116 58.1905 2.34567 58.4445 2.23378C59.1085 1.94131 59.4331 1.69469 59.6347 1.32954C59.7802 1.06611 59.8073 0.920553 59.7386 0.770165C59.694 0.672275 59.6497 0.640021 59.5141 0.606573C58.9289 0.46221 57.714 1.18456 56.9632 2.12334C56.8283 2.29202 56.6954 2.45547 56.6678 2.48657C56.628 2.53146 56.4277 2.5556 55.6952 2.60384C53.4845 2.74946 51.8545 2.79997 48.3322 2.83209C44.9044 2.86337 43.2801 2.8209 39.1932 2.59319C36.6989 2.4542 35.9827 2.42263 33.8556 2.35776C31.954 2.29977 30.9162 2.26023 29.0498 2.17468C27.3399 2.09631 24.2126 2.07084 22.2941 2.11958C19.4921 2.19081 18.5024 2.25265 16.7004 2.469C15.163 2.65363 14.5357 2.75448 12.6838 3.11479C12.2233 3.20438 11.0566 3.47561 10.0432 3.72872C8.80244 4.03855 8.86613 4.03108 8.59401 3.89859C8.30834 3.75946 7.47225 3.4445 7.13643 3.3495C6.48698 3.16574 5.60152 3.08495 5.21489 3.1741C5.02506 3.21791 4.84347 3.37674 4.84347 3.49898C4.84347 3.6081 4.94325 3.76083 5.09341 3.88159C5.39645 4.12529 5.99552 4.29581 6.81964 4.37296L7.30546 4.41842L6.97063 4.52114C6.48387 4.67045 5.69284 4.94701 5.3788 5.0777C5.13729 5.17823 5.09723 5.18541 5.02388 5.14135C4.87128 5.04978 4.5132 5.00139 3.85177 4.98299C2.64512 4.9494 1.96785 5.11346 1.96785 5.43939C1.96785 5.69279 2.47148 5.87554 3.17833 5.87861L3.63047 5.88055L3.33026 6.06107C2.92949 6.3021 2.58272 6.60143 2.4807 6.79454C2.40428 6.93908 2.40207 6.96257 2.45411 7.07666C2.55672 7.3016 2.91086 7.32703 3.03285 7.11823C3.10415 6.99616 3.55755 6.65577 3.90594 6.46273C4.1868 6.30711 5.33027 5.76758 5.37924 5.76758C5.39283 5.76758 5.2481 5.91758 5.05764 6.10087C4.67676 6.4675 4.41236 6.77917 4.33255 6.95561C4.29225 7.04473 4.29064 7.10058 4.32526 7.20637C4.47113 7.65234 5.1419 7.43502 5.83138 6.71848C6.15423 6.38296 6.61075 5.77415 6.76749 5.47013L6.91154 5.19071L7.40394 5.0427C7.95149 4.87817 8.86747 4.64252 8.88768 4.66103C8.89485 4.6676 8.81819 4.72728 8.71735 4.79359C8.45622 4.96538 7.77139 5.57502 7.63379 5.7582C7.26769 6.24559 7.18548 6.6194 7.40091 6.81673C7.57057 6.97213 7.81098 6.97015 8.18958 6.8102C8.63561 6.62174 9.20936 6.01759 9.66784 5.25357C9.83049 4.98256 10.0038 4.59309 10.0038 4.4987C10.0038 4.39161 10.1453 4.33961 11.0083 4.12969C14.0774 3.38305 17.1536 2.93658 20.1078 2.80903C23.4269 2.66572 26.0675 2.67059 29.621 2.82657C30.8689 2.88134 31.8331 2.91612 34.6632 3.00846C36.3729 3.06424 37.1886 3.10284 39.9614 3.25919C43.0052 3.43079 43.3932 3.44039 47.2292 3.4388C50.6984 3.43736 52.4893 3.40496 54.2804 3.31125C54.6812 3.29025 55.1232 3.27012 55.2627 3.26651L55.5164 3.25991L55.544 3.38013C55.6019 3.63177 56.0553 4.14088 57.0566 5.07853C58.0707 6.02816 58.5585 6.32075 58.9179 6.19512C59.5047 5.9901 59.1446 4.84663 58.256 4.09307C57.8321 3.73359 57.3759 3.4852 56.7905 3.2952C56.622 3.2405 56.4907 3.18973 56.4987 3.18241C56.5129 3.16942 59.1786 2.95321 59.3244 2.95321C59.3659 2.95321 59.4477 3.01946 59.5137 3.10656C59.6651 3.30645 60.1072 3.704 60.4058 3.90862C61.1903 4.44627 61.9894 4.59139 62.2548 4.24432C62.3409 4.13182 62.333 3.84624 62.2392 3.67781C62.0933 3.41585 61.6018 3.09231 61.1114 2.93532C60.7894 2.83231 60.7759 2.83609 61.7451 2.75635C62.4629 2.69729 63.3268 2.60662 63.4871 2.57353C63.7283 2.52374 63.8155 2.23043 63.6377 2.06759C63.5223 1.96183 63.4691 1.95989 62.7843 2.03634C62.5019 2.06788 62.2626 2.0861 62.2524 2.07679C62.2423 2.06752 62.3278 2.0113 62.4425 1.95188C63.0342 1.64555 63.703 1.07906 63.8768 0.737078C64.0376 0.420895 63.9723 0.144909 63.7134 0.0457923C63.5543 -0.0150775 63.498 -0.0151847 63.254 0.0449994ZM65.8419 1.27455C65.4588 1.33059 65.1073 1.45016 64.6937 1.6651C64.5224 1.75415 64.3179 1.85164 64.2394 1.8817C64.0064 1.97085 63.9893 2.185 64.2085 2.26817C64.2876 2.29819 64.6089 2.31403 65.2019 2.31717C66.0204 2.3215 66.0937 2.31645 66.312 2.241C66.6427 2.12669 66.8324 2.00127 66.9244 1.83609C67.0339 1.63944 67.0254 1.52406 66.8925 1.40232C66.6953 1.22166 66.4267 1.189 65.8419 1.27455ZM1.86937 7.29568C1.37272 7.51224 0.220426 8.27926 0.080703 8.48633C-0.12445 8.79036 0.0802299 9.04759 0.483485 8.99253C0.756984 8.95515 1.12636 8.7721 1.39813 8.53923C1.77574 8.21569 2.3598 7.53832 2.36091 7.42272C2.36268 7.22936 2.1485 7.17401 1.86937 7.29568Z"/>
</svg>
