<svg width="48" height="35" viewBox="0 0 48 35" fill="currentColor"
    xmlns="http://www.w3.org/2000/svg">
    <path d="M42.945 17.2326V12.9982H38.6673V8.62478H34.3845L34.3841 4.4381H38.6574V0.155273H34.3746V4.4381H30.1013V8.72092H17.3543V4.4381H13.0813V0.155273H8.79887V4.4381H13.0718L13.0714 8.62478H8.78825V12.9982H4.51018V17.2326H0.227356V30.0812H4.51018V21.5153H8.78825V30.0812H13.0594V34.3637H21.6243V30.0812H13.0711V25.798H34.3836V30.0812H25.8293V34.3637H34.3949V30.0812H38.6661L38.6668 21.5153H42.9445V30.0812H47.2274V17.2326H42.945ZM17.34 17.2326H13.0772V13.003H17.34V17.2326ZM34.3786 17.2326H30.1166V13.003H34.3786V17.2326Z"/>
</svg>
